<svg width="29" height="28" viewBox="0 0 29 28" fill="none" xmlns="http://www.w3.org/2000/svg">
<path d="M21.5 17.5C21.5 15.5674 23.0674 14 25 14H28.5V7H25C23.0674 7 21.5 5.43259 21.5 3.5V0H7.5V3.5C7.5 5.43259 5.93259 7 4 7H0.5V14H4C5.93259 14 7.5 15.5674 7.5 17.5C7.5 19.4326 5.93259 21 4 21H0.5V28H7.5V24.5C7.5 22.5674 9.06741 21 11 21H18C19.9326 21 21.5 22.5674 21.5 24.5V28H28.5V21H25C23.0674 21 21.5 19.4326 21.5 17.5ZM11 14C9.06741 14 7.5 12.4326 7.5 10.5C7.5 8.56741 9.06741 7 11 7H18C19.9326 7 21.5 8.56741 21.5 10.5C21.5 12.4326 19.9326 14 18 14H11Z" fill="white"/>
</svg>
